<svg viewBox="0 0 1440 372" fill="none" xmlns="http://www.w3.org/2000/svg" xmlns:xlink="http://www.w3.org/1999/xlink">
  <path fill-rule="evenodd" clip-rule="evenodd" d="M1146.47 0L1141.36 3.02804V7.73832L1137.21 10.0935V13.4579H1139.77V18.5047L1141.36 22.2056L1143.91 24.8972L1141.36 28.2617L1139.77 32.972L1135.3 34.6542L1130.83 41.7196L1127 64.9346V70.3178L1129.23 77.0467L1130.83 78.729L1135.3 81.4206V85.7944L1132.74 89.8318L1135.3 92.5234V104.299L1137.21 109.346V114.393V118.43L1139.77 120.112L1141.36 133.234L1143.91 156.112V170.243L1141.36 173.944L1138.74 175.644L902 208.5L743.5 292L517 268L310 310L97.5 292L-10 341V382H1442.5V102L1405 89.5L1316 172L1228 190L1167.3 172.656L1166.26 170.243V165.196H1167.85L1166.26 156.112L1167.85 135.925L1166.26 118.43L1167.85 101.271V95.215H1171.36L1177.11 173.944H1179.34L1173.6 95.215L1177.11 101.271L1179.34 99.2523L1177.11 92.5234L1181.57 89.8318L1183.17 78.729L1181.57 70.3178L1183.17 47.7757L1181.57 41.7196L1183.17 40.0374L1187 44.0748V41.7196L1183.17 36.6729L1180.3 26.9159V22.2056L1173.6 11.7757L1171.36 10.0935H1166.26L1157.32 8.41121V4.71028L1153.17 0H1146.47Z" fill="var(--scene-foreground)"/>
  <path fill-rule="evenodd" clip-rule="evenodd" d="M1146.47 0L1141.36 3.02804V7.73832L1137.21 10.0935V13.4579H1139.77V18.5047L1141.36 22.2056L1143.91 24.8972L1141.36 28.2617L1139.77 32.972L1135.3 34.6542L1130.83 41.7196L1127 64.9346V70.3178L1129.23 77.0467L1130.83 78.729L1135.3 81.4206V85.7944L1132.74 89.8318L1135.3 92.5234V104.299L1137.21 109.346V114.393V118.43L1139.77 120.112L1141.36 133.234L1143.91 156.112V170.243L1141.36 173.944L1138.74 175.644L902 208.5L743.5 292L517 268L310 310L97.5 292L-10 341V382H1442.5V102L1405 89.5L1316 172L1228 190L1167.3 172.656L1166.26 170.243V165.196H1167.85L1166.26 156.112L1167.85 135.925L1166.26 118.43L1167.85 101.271V95.215H1171.36L1177.11 173.944H1179.34L1173.6 95.215L1177.11 101.271L1179.34 99.2523L1177.11 92.5234L1181.57 89.8318L1183.17 78.729L1181.57 70.3178L1183.17 47.7757L1181.57 41.7196L1183.17 40.0374L1187 44.0748V41.7196L1183.17 36.6729L1180.3 26.9159V22.2056L1173.6 11.7757L1171.36 10.0935H1166.26L1157.32 8.41121V4.71028L1153.17 0H1146.47Z" fill="url(#pattern0)" fill-opacity="0.6"/>
  <defs>
    <pattern id="pattern0" patternContentUnits="objectBoundingBox" width="1.40998" height="5.36126">
      <use xlink:href="#image0_46_11" transform="scale(0.000688468 0.0026178)"/>
    </pattern>
  </defs>
</svg>